# xmcd
#
# Track frame offsets: 
#        150
#        19321
#        31110
#        34661
#        40912
#        48069
#        60230
#        81647
#        91241
#        98930
#        112379
#        119673
#        128725
#        136305
#        146098
#        152837
#        159514
#        169829
#        182240
#        194295
#        200568
#        203022
#        213961
#        220891
#        226492
#        241654
#
# Disc length: 3315 seconds
#
# Revision: 0
# Processed by: cddbd v1.5.2PL0 Copyright (c) Steve Scherf et al.
# Submitted via: ExactAudioCopyFreeDBPlugin 1.0
#
DISCID=740cf11a
DTITLE=カワイ音楽教室 - ピコルわーるどA
DYEAR=2008
DGENRE=Piano
TTITLE0=ピコルわーるど おとのワールド1
TTITLE1=ププとドライブ
TTITLE2=じどうしゃ
TTITLE3=バスとおきゃく
TTITLE4=ジェットコースター
TTITLE5=ティアラのきもち
TTITLE6=あるKING王国
TTITLE7=かねがなるよ
TTITLE8=ラベンダーブルー
TTITLE9=ケロケロリズム
TTITLE10=かえるの合唱
TTITLE11=バッタバッタん
TTITLE12=ありさんのキッス
TTITLE13=にんにんにんきち
TTITLE14=おばけやしき
TTITLE15=はっぱがサワサワ
TTITLE16=山寺のおしょうさん
TTITLE17=ぽえぽえぽえム
TTITLE18=Zooリズム
TTITLE19=いち、に、さん、し、手をたたけば
TTITLE20=あんたがたどこさ
TTITLE21=おはようクレヨン
TTITLE22=ソレ！はくしゅ
TTITLE23=アンダンテ
TTITLE24=トランペット吹きの休日
TTITLE25=ありがとう さようなら1
EXTD=
EXTT0=
EXTT1=
EXTT2=
EXTT3=
EXTT4=
EXTT5=
EXTT6=
EXTT7=
EXTT8=
EXTT9=
EXTT10=
EXTT11=
EXTT12=
EXTT13=
EXTT14=
EXTT15=
EXTT16=
EXTT17=
EXTT18=
EXTT19=
EXTT20=
EXTT21=
EXTT22=
EXTT23=
EXTT24=
EXTT25=
PLAYORDER=
